#!OML:ASF I:\golf\golf\golf 2\Subject 1\2002-09-07\Subject1.ASF
:FULLY-SPECIFIED
:DEGREES
158
root -10.9531 17.9381 4.71481 -2.96981 77.1778 -22.0383
lowerback 4.05931 1.00997 -3.28394
upperback 5.48752 1.35745 3.14191
thorax 3.25168 0.549502 5.09164
lowerneck -12.866 0.145401 1.84184
upperneck 41.4011 4.19721 -5.72456
head 17.6255 1.76236 -2.04447
rclavicle 3.62782e-015 1.43125e-014
rhumerus -13.7955 22.6891 -98.4344
rradius 47.5016
rwrist -49.2049
rhand -32.35 -8.84351
rfingers 7.12502
rthumb -5.58671 -38.7499
lclavicle 3.62782e-015 1.43125e-014
lhumerus -8.52399 -45.881 104.861
lradius 43.2143
lwrist 49.0265
lhand -5.94693 62.5899
lfingers 7.12502
lthumb -160.117 88.4072
rfemur -34.8507 0.0389383 17.0044
rtibia 28.411
rfoot -7.54435 -1.83605
rtoes -7.84831
lfemur -31.4475 6.73184 -8.80515
ltibia 27.9949
lfoot -9.78651 3.58692
ltoes -17.9404
159
root -10.9499 17.9395 4.71496 -2.98164 77.0755 -22.013
lowerback 4.07469 0.985552 -3.30149
upperback 5.49256 1.32439 3.13303
thorax 3.252 0.532354 5.09265
lowerneck -12.8736 0.18594 1.86176
upperneck 41.4384 4.26836 -5.74834
head 17.6559 1.79041 -2.04774
rclavicle 9.14409e-015 -1.44616e-014
rhumerus -13.7883 22.7239 -98.4509
rradius 47.4715
rwrist -49.2321
rhand -32.3918 -8.74731
rfingers 7.12502
rthumb -5.62702 -38.6526
lclavicle 9.14409e-015 -1.44616e-014
lhumerus -8.53338 -46.0045 104.808
lradius 43.3919
lwrist 49.603
lhand -5.77866 63.2077
lfingers 7.12502
lthumb -159.955 87.8063
rfemur -34.8068 0.100685 17.0193
rtibia 28.4121
rfoot -7.57879 -1.77712
rtoes -7.81402
lfemur -31.4439 6.98306 -8.90962
ltibia 28.0159
lfoot -9.67121 3.68913
ltoes -19.5044
160
root -10.9469 17.9386 4.71527 -3.2659 76.9368 -22.2787
lowerback 4.07538 0.96235 -3.25514
upperback 5.50695 1.29444 3.14342
thorax 3.2705 0.518325 5.07802
lowerneck -12.8402 0.233006 1.86923
upperneck 41.4016 4.33663 -5.76619
head 17.6315 1.81529 -2.04459
rclavicle 0 2.82274e-014
rhumerus -13.7673 22.7777 -98.5143
rradius 47.433
rwrist -49.323
rhand -32.8484 -8.42331
rfingers 7.12502
rthumb -6.06787 -38.3164
lclavicle 0 2.82274e-014
lhumerus -8.42137 -45.8337 104.703
lradius 43.2722
lwrist 49.2588
lhand -5.23467 63.2324
lfingers 7.12502
lthumb -159.432 87.8372
rfemur -34.7669 0.196444 17.1167
rtibia 28.3955
rfoot -7.55925 -1.76274
rtoes -7.92603
lfemur -31.4407 7.33239 -8.96521
ltibia 28.0217
lfoot -9.55544 3.78877
ltoes -21.1741
161
root -10.9451 17.9391 4.71423 -3.17348 76.8921 -22.1561
lowerback 4.09814 0.946958 -3.3065
upperback 5.51658 1.27271 3.16458
thorax 3.26938 0.505193 5.12963
lowerneck -12.8251 0.244825 1.75661
upperneck 41.3769 4.3639 -5.71696
head 17.6108 1.81427 -1.99563
rclavicle -2.17669e-014 -2.49972e-014
rhumerus -13.7627 22.765 -98.5039
rradius 47.4352
rwrist -49.3393
rhand -32.9632 -8.25027
rfingers 7.12502
rthumb -6.17864 -38.1402
lclavicle -2.17669e-014 -2.49972e-014
lhumerus -8.32336 -45.6685 104.737
lradius 43.069
lwrist 48.8442
lhand -5.39544 62.9063
lfingers 7.12502
lthumb -159.587 88.1467
rfemur -34.7209 0.23448 17.0913
rtibia 28.3689
rfoot -7.51753 -1.80179
rtoes -7.94782
lfemur -31.3229 7.13955 -8.85509
ltibia 28.0359
lfoot -9.73424 3.76045
ltoes -19.5
162
root -10.9439 17.9405 4.71297 -2.9467 76.8824 -21.9376
lowerback 4.10044 0.949607 -3.31777
upperback 5.50569 1.27583 3.13472
thorax 3.25661 0.507141 5.1043
lowerneck -12.8343 0.237787 1.71748
upperneck 41.409 4.35229 -5.67169
head 17.6284 1.80957 -1.97036
rclavicle -2.28602e-014 -1.53064e-014
rhumerus -13.7293 22.6044 -98.4804
rradius 47.4187
rwrist -49.2844
rhand -32.5571 -8.27857
rfingers 7.12502
rthumb -5.78663 -38.1796
lclavicle -2.28602e-014 -1.53064e-014
lhumerus -8.32811 -45.5979 104.81
lradius 42.9413
lwrist 48.6098
lhand -5.51023 62.6374
lfingers 7.12502
lthumb -159.697 88.4039
rfemur -34.7217 0.275846 17.0216
rtibia 28.3419
rfoot -7.52081 -1.87143
rtoes -8.08617
lfemur -31.2695 6.87581 -8.75539
ltibia 28.06
lfoot -9.89073 3.7136
ltoes -17.4967
163
root -10.9417 17.9397 4.71254 -2.80354 76.8482 -21.8171
lowerback 4.07583 0.961527 -3.27231
upperback 5.49597 1.29301 3.06934
thorax 3.25979 0.518307 5.00971
lowerneck -12.8038 0.255305 1.78246
upperneck 41.3975 4.34207 -5.63766
head 17.6125 1.82016 -1.96819
rclavicle -7.23079e-015 -3.23025e-015
rhumerus -13.6686 22.4137 -98.503
rradius 47.4095
rwrist -49.3728
rhand -32.2805 -8.3402
rfingers 7.12502
rthumb -5.51958 -38.2483
lclavicle -7.23079e-015 -3.23025e-015
lhumerus -8.38882 -45.5541 104.841
lradius 42.9063
lwrist 48.4863
lhand -5.47706 62.5013
lfingers 7.12502
lthumb -159.665 88.5433
rfemur -34.7277 0.341481 16.9744
rtibia 28.3039
rfoot -7.54768 -1.86221
rtoes -8.12359
lfemur -31.3657 7.11734 -8.92212
ltibia 28.08
lfoot -9.71877 3.82473
ltoes -19.3671
164
root -10.9382 17.9387 4.71229 -2.69507 76.7729 -21.7051
lowerback 4.06992 0.982858 -3.25309
upperback 5.4959 1.32204 3.02741
thorax 3.26068 0.534111 4.95433
lowerneck -12.7622 0.264109 1.79082
upperneck 41.3481 4.32559 -5.59588
head 17.5697 1.81987 -1.95224
rclavicle 2.13694e-015 4.17448e-015
rhumerus -13.6234 22.2236 -98.5362
rradius 47.4103
rwrist -49.5317
rhand -32.1795 -8.4025
rfingers 7.12502
rthumb -5.42201 -38.3131
lclavicle 2.13694e-015 4.17448e-015
lhumerus -8.42847 -45.4837 104.868
lradius 42.9221
lwrist 48.3597
lhand -5.69187 62.5666
lfingers 7.12502
lthumb -159.871 88.4562
rfemur -34.6987 0.412857 16.9438
rtibia 28.2546
rfoot -7.54946 -1.78046
rtoes -7.66167
lfemur -31.4136 7.4435 -9.10137
ltibia 28.1011
lfoot -9.59735 3.89748
ltoes -21.4378
165
root -10.9352 17.9413 4.71099 -2.87947 76.7068 -21.9381
lowerback 4.06767 0.986112 -3.15262
upperback 5.45593 1.327 3.01343
thorax 3.22101 0.541637 4.8816
lowerneck -12.6916 0.261912 1.78405
upperneck 41.2894 4.31294 -5.59191
head 17.5155 1.8147 -1.95008
rclavicle -9.24349e-015 -1.34677e-014
rhumerus -13.6601 22.1498 -98.5955
rradius 47.4012
rwrist -49.5359
rhand -32.4609 -8.3815
rfingers 7.12502
rthumb -5.69378 -38.285
lclavicle -9.24349e-015 -1.34677e-014
lhumerus -8.5047 -45.4763 104.875
lradius 42.999
lwrist 48.3273
lhand -5.88887 62.8244
lfingers 7.12502
lthumb -160.061 88.1785
rfemur -34.715 0.451004 17.0167
rtibia 28.204
rfoot -7.50138 -1.76368
rtoes -7.52015
lfemur -31.366 7.29039 -8.89668
ltibia 28.1293
lfoot -9.81385 3.76519
ltoes -19.1084
166
root -10.9329 17.9454 4.71028 -3.06492 76.6599 -22.1698
lowerback 4.07914 0.980047 -3.09502
upperback 5.40974 1.31831 3.02076
thorax 3.16776 0.540761 4.85544
lowerneck -12.6339 0.278105 1.79692
upperneck 41.2533 4.32827 -5.59287
head 17.4807 1.82332 -1.94937
rclavicle -1.48592e-014 -1.89342e-014
rhumerus -13.7353 22.2377 -98.6348
rradius 47.3824
rwrist -49.4384
rhand -33.0811 -8.27662
rfingers 7.12502
rthumb -6.29252 -38.1632
lclavicle -1.48592e-014 -1.89342e-014
lhumerus -8.57174 -45.4891 104.893
lradius 43.0376
lwrist 48.3127
lhand -5.80966 63.0437
lfingers 7.12502
lthumb -159.985 87.9671
rfemur -34.7323 0.468633 17.0937
rtibia 28.1595
rfoot -7.45397 -1.76684
rtoes -7.92591
lfemur -31.2462 6.88566 -8.55326
ltibia 28.1497
lfoot -10.1731 3.59386
ltoes -14.9139
167
root -10.9301 17.946 4.70997 -3.08746 76.6061 -22.1963
lowerback 4.09403 0.984828 -3.08182
upperback 5.38658 1.32413 2.99597
thorax 3.13509 0.545391 4.821
lowerneck -12.585 0.301459 1.86221
upperneck 41.243 4.33439 -5.57511
head 17.4626 1.83884 -1.952
rclavicle 1.32316e-014 -1.24986e-014
rhumerus -13.7951 22.2592 -98.6738
rradius 47.3979
rwrist -49.4866
rhand -33.3554 -8.07991
rfingers 7.12502
rthumb -6.55731 -37.9584
lclavicle 1.32316e-014 -1.24986e-014
lhumerus -8.61955 -45.539 104.896
lradius 43.0705
lwrist 48.4354
lhand -4.3592 62.9053
lfingers 7.12502
lthumb -158.591 88.2576
rfemur -34.7155 0.523007 17.105
rtibia 28.1199
rfoot -7.39678 -1.75747
rtoes -7.90223
lfemur -31.2247 6.92568 -8.54407
ltibia 28.1516
lfoot -10.1656 3.63992
ltoes -14.8852
168
root -10.9273 17.9449 4.70801 -2.97232 76.6107 -22.1005
lowerback 4.09387 0.978495 -3.00944
upperback 5.35182 1.31663 2.91214
thorax 3.10192 0.546391 4.69142
lowerneck -12.5124 0.327178 1.96723
upperneck 41.2398 4.32576 -5.53576
head 17.4412 1.85819 -1.95478
rclavicle 3.89369e-014 -3.78685e-014
rhumerus -13.8427 22.1228 -98.757
rradius 47.4337
rwrist -49.6118
rhand -33.1913 -7.76467
rfingers 7.12502
rthumb -6.39889 -37.648
lclavicle 3.89369e-014 -3.78685e-014
lhumerus -8.71874 -45.6681 104.855
lradius 43.1402
lwrist 48.6568
lhand -4.89618 63.2012
lfingers 7.12502
lthumb -159.107 87.9039
rfemur -34.7238 0.582735 17.0492
rtibia 28.1
rfoot -7.3448 -1.82143
rtoes -7.94837
lfemur -31.3787 7.26801 -8.81953
ltibia 28.1313
lfoot -9.75557 3.86188
ltoes -18.3651
169
root -10.9253 17.9476 4.70693 -2.75907 76.6071 -21.9127
lowerback 4.06685 0.97503 -2.99845
upperback 5.34209 1.31258 2.86351
thorax 3.10824 0.54527 4.63469
lowerneck -12.4878 0.355853 2.01256
upperneck 41.2189 4.34932 -5.52817
head 17.4248 1.8757 -1.95501
rclavicle 3.5327e-015 3.58325e-014
rhumerus -13.8054 22.0079 -98.7846
rradius 47.4108
rwrist -49.5774
rhand -33.0344 -7.67044
rfingers 7.12502
rthumb -6.24747 -37.5583
lclavicle 3.5327e-015 3.58325e-014
lhumerus -8.74758 -45.6954 104.836
lradius 43.1436
lwrist 48.6585
lhand -5.50406 63.3006
lfingers 7.12502
lthumb -159.691 87.7413
rfemur -34.7489 0.61999 16.9867
rtibia 28.1017
rfoot -7.35319 -1.88846
rtoes -8.24976
lfemur -31.3918 7.19028 -8.84061
ltibia 28.113
lfoot -9.71113 3.90147
ltoes -18.1989
170
root -10.923 17.9506 4.70797 -2.52544 76.5201 -21.6882
lowerback 4.03099 0.982298 -3.0679
upperback 5.3554 1.32174 2.85269
thorax 3.14057 0.54652 4.66367
lowerneck -12.4836 0.406911 2.00676
upperneck 41.1642 4.42667 -5.54667
head 17.3984 1.90217 -1.94755
rclavicle 6.60183e-015 -3.20043e-014
rhumerus -13.7652 22.0505 -98.7929
rradius 47.3913
rwrist -49.4972
rhand -33.1524 -7.77706
rfingers 7.12502
rthumb -6.36136 -37.6615
lclavicle 6.60183e-015 -3.20043e-014
lhumerus -8.7155 -45.6239 104.825
lradius 43.1368
lwrist 48.6063
lhand -4.95158 63.1909
lfingers 7.12502
lthumb -159.16 87.9084
rfemur -34.7644 0.645884 16.9658
rtibia 28.103
rfoot -7.37996 -1.86069
rtoes -8.08373
lfemur -31.2253 6.86634 -8.62667
ltibia 28.1142
lfoot -10.0985 3.73664
ltoes -14.5714
